<svg xmlns="http://www.w3.org/2000/svg" width="199.916" height="43.82" viewBox="0 0 199.916 43.82">
  <g id="darklogowithtext" transform="translate(21625.316 22662.67)">
    <g id="Group_2" data-name="Group 2" transform="translate(-21625.316 -22662.67)">
      <path id="Path_1" data-name="Path 1" d="M-22348.312-23109.3l7.563-7.549-.008-19.391,5.451-5.566-.025,19.527,5.551-5.512v-9.8l5.482-5.537v9.82l16.342-16.35h-28.939l-11.428,11.293Z" transform="translate(22348.324 23149.664)" fill="#007aff"/>
      <path id="Path_2" data-name="Path 2" d="M-22307.973-23149.656l-7.561,7.549.006,19.385-5.449,5.576.025-19.533-5.549,5.514v9.8l-5.486,5.539v-9.822l-16.344,16.348h28.941l11.428-11.293Z" transform="translate(22349.203 23153.117)" fill="#244855"/>
    </g>
    <path id="Union_4" data-name="Union 4" d="M26.383,24.71h3.574s.179,3.265,4.154,2.455c3.018-.711,2.774-4.359,2.774-4.359V20.83s-2.126,3.85-7.364,1.976C26,21.323,26.4,17,26.367,16.287s0-8.579,0-8.579h3.59v8.825s-.088,3.917,3.442,3.686,3.478-4.3,3.478-4.3V7.708h3.587V23.185s.205,6.6-6.353,6.984q-.567.044-1.08.044C26.268,30.213,26.383,24.71,26.383,24.71Zm53.592-1.349a10.534,10.534,0,0,1-1.239-.074,7.815,7.815,0,0,1-1.995-.5,6.57,6.57,0,0,1-1.534-.869,6.979,6.979,0,0,1-1.926-2.314,8.674,8.674,0,0,1-.512-1.174,9.3,9.3,0,0,1-.291-1.006,7.086,7.086,0,0,1-.161-.967,10.153,10.153,0,0,1-.026-1.7,10.854,10.854,0,0,1,.234-1.686,8.5,8.5,0,0,1,.635-1.858,6.883,6.883,0,0,1,.973-1.487,6.632,6.632,0,0,1,1.432-1.249,7.125,7.125,0,0,1,1.924-.862,9.086,9.086,0,0,1,2.449-.326h.032a8.668,8.668,0,0,1,2.421.324,6.625,6.625,0,0,1,1.867.868,6.162,6.162,0,0,1,1.356,1.252,6.5,6.5,0,0,1,.887,1.478,8.449,8.449,0,0,1,.553,1.87,10.831,10.831,0,0,1,.163,1.685,10.152,10.152,0,0,1-.1,1.686H75.805a3.206,3.206,0,0,0,.032.447,4.307,4.307,0,0,0,.274,1.042,3.5,3.5,0,0,0,.784,1.187,3.591,3.591,0,0,0,1.561.882,5.729,5.729,0,0,0,1.544.2,4.991,4.991,0,0,0,2.1-.414,3.07,3.07,0,0,0,.639-.415,2.816,2.816,0,0,0,.409-.427,2.058,2.058,0,0,0,.281-.468h3.693a5.479,5.479,0,0,1-.385,1.063,6.57,6.57,0,0,1-.594,1.016,5.9,5.9,0,0,1-1.951,1.751,7.474,7.474,0,0,1-1.216.546,8.642,8.642,0,0,1-1.415.359,9.654,9.654,0,0,1-1.586.129ZM78.5,10.245a3.727,3.727,0,0,0-1,.418,3.352,3.352,0,0,0-1.2,1.266,4.064,4.064,0,0,0-.294.676,4.5,4.5,0,0,0-.152.59,3.6,3.6,0,0,0-.066.575h7.929a3.939,3.939,0,0,0-.108-.909,4.052,4.052,0,0,0-.3-.855,3.321,3.321,0,0,0-.6-.871,3.848,3.848,0,0,0-2.885-1.049h-.005A5.253,5.253,0,0,0,78.5,10.245ZM96.725,23.318a8.113,8.113,0,0,1-2.933-.632,6.819,6.819,0,0,1-2.331-1.635,7.227,7.227,0,0,1-1.52-2.574,9.916,9.916,0,0,1-.5-3.448,8.642,8.642,0,0,1,.74-3.431,7.138,7.138,0,0,1,1.778-2.4,7.352,7.352,0,0,1,1.147-.829,7.651,7.651,0,0,1,1.248-.586,7.759,7.759,0,0,1,1.3-.348,7.448,7.448,0,0,1,1.294-.115c.146,0,.292,0,.436.014a6.775,6.775,0,0,1,2.114.478,5.51,5.51,0,0,1,1.39.823,4.782,4.782,0,0,1,.763.779,2.78,2.78,0,0,1,.233.346V7.683h3.529V22.938H101.88V20.9h0a3.792,3.792,0,0,1-.3.376,6.041,6.041,0,0,1-.931.83,6.285,6.285,0,0,1-1.582.83,6.739,6.739,0,0,1-2.257.377ZM97.5,10.466h-.079a4.293,4.293,0,0,0-.666.092,5.433,5.433,0,0,0-.684.19,4.947,4.947,0,0,0-.786.353,4.063,4.063,0,0,0-1.482,1.4,4.361,4.361,0,0,0-.5,1.145,5.938,5.938,0,0,0-.2,1.509,7.106,7.106,0,0,0,.087,1.235,5.3,5.3,0,0,0,.268,1.016,4.087,4.087,0,0,0,1.815,2.146,4.741,4.741,0,0,0,.9.4,4.487,4.487,0,0,0,1.25.229h.017a5.589,5.589,0,0,0,1.405-.187,4.726,4.726,0,0,0,1-.389,3.9,3.9,0,0,0,.97-.724,4.928,4.928,0,0,0,1.193-3.723,6.538,6.538,0,0,0-.208-1.5,4.608,4.608,0,0,0-.469-1.138,3.893,3.893,0,0,0-1.4-1.4,5.037,5.037,0,0,0-2.427-.653h0Zm23.677,11.982c-1.891-1.175-1.945-4.213-1.945-4.213V10.721h-2.542V7.686h2.542V3.074h3.582V7.686h3.475v3.035h-3.475v6.654s-.083,1.694.913,2.3,3.068.111,3.068.111v3.153a14.654,14.654,0,0,1-2.379.2A6.42,6.42,0,0,1,121.181,22.448Zm-58.534.528L57.4,6.605,52.039,22.976H49.378L41.452.04h3.96l5.4,16.613L56.008.04h2.7l5.135,16.613L69.325.04h3.986L65.348,22.976ZM18.275,22.96V7.863l-5.92,15.1H9.465L3.59,7.564v15.4H0V.066H3.59l7.318,17.36L18.275.066h3.51V22.96Zm122.359-.027V14.657s.318-4.575-3.486-4.312-3.475,4.455-3.475,4.455v8.133h-3.606l0-22.933h3.608V9.8a4.978,4.978,0,0,1,2.487-2.081,7.882,7.882,0,0,1,4.659-.083c3.4.921,3.371,5.367,3.371,5.367v9.932Zm-30.632,0V.046h3.571V22.932Z" transform="translate(-21569.59 -22651.988)" fill="#244855"/>
  </g>
</svg>
