<svg xmlns="http://www.w3.org/2000/svg" width="22.566" height="22.158" viewBox="0 0 22.566 22.158">
  <g id="thumb-up-icn" transform="translate(20185.607 -6959)">
    <path id="Path_289" data-name="Path 289" d="M1.517,26.378c.36.308.655.694.626.957a4.461,4.461,0,0,0-.026.479A4.209,4.209,0,0,0,6.2,32.137a3.881,3.881,0,0,0,.813-.086,1.39,1.39,0,0,1,1.279.446,3.93,3.93,0,0,0,6.1-.145,1.174,1.174,0,0,1,1.25-.387,3.863,3.863,0,0,0,1.14.172,4.209,4.209,0,0,0,4.085-4.324,4.472,4.472,0,0,0-.069-.781,1.572,1.572,0,0,1,.464-1.293,4.48,4.48,0,0,0-.219-6.515c-.359-.308-.655-.694-.626-.957a4.449,4.449,0,0,0,.026-.479,4.209,4.209,0,0,0-4.085-4.323,3.884,3.884,0,0,0-.813.086,1.39,1.39,0,0,1-1.279-.446,3.921,3.921,0,0,0-5.977,0,1.391,1.391,0,0,1-1.279.446,3.884,3.884,0,0,0-.813-.086,4.209,4.209,0,0,0-4.085,4.323,4.5,4.5,0,0,0,.051.676A1.355,1.355,0,0,1,1.6,19.59a4.473,4.473,0,0,0-.086,6.788Z" transform="translate(-20185.607 6947.278)" fill="#f9e2aa"/>
    <rect id="Rectangle_47" data-name="Rectangle 47" width="2.097" height="6.381" transform="matrix(0.996, 0.087, -0.087, 0.996, -20179.18, 6967.838)" fill="#e3b12f"/>
    <path id="Path_290" data-name="Path 290" d="M.33,3.468,3.848,0l.6.518a1.183,1.183,0,0,1,.206.428.924.924,0,0,1-.043.438L4.1,3.683H7.516A1.056,1.056,0,0,1,8.544,4.712l-.092.071.055,1.269L6.917,9.739a1.1,1.1,0,0,1-1.091.882L.991,10.58A.991.991,0,0,1,0,9.589V4.044A.836.836,0,0,1,.33,3.468Z" transform="matrix(0.996, 0.087, -0.087, 0.996, -20175.688, 6963.927)" fill="#e3b12f"/>
  </g>
</svg>
